<svg width="57" height="56" viewBox="0 0 57 56" fill="none" xmlns="http://www.w3.org/2000/svg">
<path d="M0.75 56V0H56.75V56H0.75Z" fill="black"/>
<path d="M37.3647 41.9176C38.4412 43.666 39.611 45.3414 42.089 45.3414C44.1703 45.3414 45.2623 44.3069 45.2623 42.8758C45.2623 41.1631 44.133 40.5549 41.8432 39.5578L40.5878 39.0227C36.965 37.4858 34.5554 35.56 34.5554 31.4923C34.5554 27.7434 37.4254 24.8905 41.9101 24.8905C45.1036 24.8905 47.3981 25.9965 49.0532 28.8929L45.1425 31.3927C44.2823 29.8558 43.3521 29.2507 41.9101 29.2507C40.4385 29.2507 39.5067 30.1794 39.5067 31.3927C39.5067 32.8922 40.4401 33.4989 42.5945 34.4276L43.8498 34.9627C48.1198 36.7811 50.5278 38.6385 50.5278 42.8136C50.5278 47.3122 46.975 49.7778 42.2056 49.7778C37.5405 49.7778 34.8914 47.4367 33.4167 44.5387L37.3647 41.9176ZM19.3421 42.0451C20.1292 43.4545 21.3254 44.5387 23.0458 44.5387C24.6916 44.5387 25.639 43.8885 25.639 41.3607V24.8889H30.8236V42.1571C30.8236 47.3947 27.7856 49.7778 23.3492 49.7778C19.3405 49.7778 16.4472 47.0618 15.2681 44.5387L19.3421 42.0451Z" fill="white"/>
</svg>
